# xmcd
#
# Track frame offsets:
#	150
#	3749
#	35013
#	74537
#	88760
#	119987
#	152660
#	189400
#	209518
#	253674
#	281578
#	306849
#
# Disc length: 4418 seconds
#
# Revision: 1
# Processed by: cddbd v1.5.2PL0 Copyright (c) Steve Scherf et al.
# Submitted via: audiograbber 1.83.01
#
DISCID=b711400c
DTITLE=Grateful Dead - 79-11-25 Pauley Pavilion, Los Angeles CA
DYEAR=1900
DGENRE=
TTITLE0=Tuning
TTITLE1=Jack Straw
TTITLE2=Tennessee Jed
TTITLE3=Me and My Uncle
TTITLE4=Big River
TTITLE5=Loser
TTITLE6=New Minglewood Blues
TTITLE7=Easy To Love You
TTITLE8=Althea
TTITLE9=Lost Sailor
TTITLE10=Saint Of Circumstance
TTITLE11=Deal
EXTD=
EXTT0=
EXTT1=
EXTT2=
EXTT3=
EXTT4=
EXTT5=
EXTT6=
EXTT7=
EXTT8=
EXTT9=
EXTT10=
EXTT11=
PLAYORDER=
